HIERARCHY
ROOT Hips
{
 OFFSET 0.000000 0.000000 0.000000
 CHANNELS 6 Xposition Yposition Zposition Yrotation Xrotation Zrotation
 JOINT Chest
 {
  OFFSET 0.000000 9.585900 0.002600
  CHANNELS 3 Yrotation Xrotation Zrotation
  JOINT Chest2
  {
   OFFSET 0.000000 9.601200 -0.005300
   CHANNELS 3 Yrotation Xrotation Zrotation
   JOINT Chest3
   {
    OFFSET 0.000000 9.561800 0.000000
    CHANNELS 3 Yrotation Xrotation Zrotation
    JOINT Chest4
    {
     OFFSET 0.000000 9.552100 0.000000
     CHANNELS 3 Yrotation Xrotation Zrotation
     JOINT Neck
     {
      OFFSET 0.000000 14.453000 0.000000
      CHANNELS 3 Yrotation Xrotation Zrotation
      JOINT Head
      {
       OFFSET 0.000000 8.936500 -0.011300
       CHANNELS 3 Yrotation Xrotation Zrotation
       End Site
       {
        OFFSET 0.000000 17.073600 -0.006000
       }
      }
     }
     JOINT RightCollar
     {
      OFFSET -2.921100 9.558500 0.000000
      CHANNELS 3 Yrotation Xrotation Zrotation
      JOINT RightShoulder
      {
       OFFSET -13.519700 0.000000 0.000000
       CHANNELS 3 Yrotation Xrotation Zrotation
       JOINT RightElbow
       {
        OFFSET 0.000000 -29.696600 0.000000
        CHANNELS 3 Yrotation Xrotation Zrotation
        JOINT RightWrist
        {
         OFFSET 0.000000 -24.004700 0.000000
         CHANNELS 3 Yrotation Xrotation Zrotation
         End Site
         {
          OFFSET 0.000000 -17.728500 0.000000
         }
        }
       }
      }
     }
     JOINT LeftCollar
     {
      OFFSET 2.921100 9.558500 0.000000
      CHANNELS 3 Yrotation Xrotation Zrotation
      JOINT LeftShoulder
      {
       OFFSET 13.519700 0.000000 0.000000
       CHANNELS 3 Yrotation Xrotation Zrotation
       JOINT LeftElbow
       {
        OFFSET 0.000000 -29.696600 0.000000
        CHANNELS 3 Yrotation Xrotation Zrotation
        JOINT LeftWrist
        {
         OFFSET 0.000000 -24.004700 0.000000
         CHANNELS 3 Yrotation Xrotation Zrotation
         End Site
         {
          OFFSET 0.000000 -17.728500 0.000000
         }
        }
       }
      }
     }
    }
   }
  }
 }
 JOINT RightHip
 {
  OFFSET -7.771700 -0.012900 -0.001300
  CHANNELS 3 Yrotation Xrotation Zrotation
  JOINT RightKnee
  {
   OFFSET 0.000000 -40.869800 0.001200
   CHANNELS 3 Yrotation Xrotation Zrotation
   JOINT RightAnkle
   {
    OFFSET 0.000000 -39.717900 0.002100
    CHANNELS 3 Yrotation Xrotation Zrotation
    JOINT RightToe
    {
     OFFSET 0.000000 -4.965400 11.033500
     CHANNELS 3 Yrotation Xrotation Zrotation
     End Site
     {
      OFFSET 0.000000 -1.423100 5.872300
     }
    }
   }
  }
 }
 JOINT LeftHip
 {
  OFFSET 7.771700 -0.012900 -0.001300
  CHANNELS 3 Yrotation Xrotation Zrotation
  JOINT LeftKnee
  {
   OFFSET 0.000000 -40.869800 0.001200
   CHANNELS 3 Yrotation Xrotation Zrotation
   JOINT LeftAnkle
   {
    OFFSET 0.000000 -39.717900 0.002100
    CHANNELS 3 Yrotation Xrotation Zrotation
    JOINT LeftToe
    {
     OFFSET 0.000000 -4.965400 11.033500
     CHANNELS 3 Yrotation Xrotation Zrotation
     End Site
     {
      OFFSET 0.000000 -1.423100 5.872300
     }
    }
   }
  }
 }
}
MOTION
Frames: 13
Frame Time: 0.008333
-112.893547 52.325153 -45.890981 177.561293 -23.735599 -1.016673 -3.054879 12.596044 0.934603 -0.197539 1.012514 0.102768 -0.470863 1.678976 0.211542 -2.706363 11.456841 1.049919 -3.384919 12.780411 -0.975286 -3.344019 -12.248004 -0.254564 -1.190479 17.768270 8.253894 25.837617 -9.456081 -28.842856 142.139606 -44.248093 179.641386 0.807691 2.769540 -19.689372 4.493926 16.860196 -10.749342 -24.187853 -3.101484 28.933449 -171.021388 -46.946040 -156.629473 18.908929 -4.870152 -7.837011 -11.735001 -58.496061 7.416948 -76.888160 79.431999 -85.399162 -5.432754 -12.450943 8.752722 0.035859 0.052789 0.023341 10.617191 -56.936406 -8.557638 25.208928 83.750642 31.466241 -2.512476 -9.467589 0.628938 0.029938 0.043677 0.029266
-112.900665 52.283550 -45.905660 177.642018 -23.710313 -0.948139 -3.061669 12.597713 0.831458 -0.234011 0.998235 0.110273 -0.469716 1.673642 0.206318 -2.704898 11.454347 1.026717 -3.375594 12.774641 -0.965274 -3.336275 -12.254092 -0.246089 -1.175886 17.734247 8.218939 25.841395 -9.445291 -28.745405 142.195206 -44.306752 179.557561 0.785716 2.805055 -19.774885 4.478178 16.845115 -10.693040 -24.246029 -2.915189 29.026401 -170.949392 -46.905325 -156.898340 19.074093 -4.996444 -8.611338 -11.676220 -58.544422 7.266482 -77.139876 79.404238 -85.667992 -5.425002 -12.380152 8.736446 0.073703 -0.109819 0.046770 10.758518 -56.960680 -8.749746 25.262495 83.778639 31.497760 -2.567263 -9.529532 0.660342 0.055717 0.101645 0.039858
-112.901085 52.242828 -45.924979 177.689455 -23.721853 -0.897788 -3.057840 12.631369 0.759566 -0.269734 0.981732 0.117542 -0.394750 1.699138 0.177439 -2.761127 11.429634 1.032751 -3.359738 12.771943 -0.970563 -3.329531 -12.261188 -0.239409 -1.153308 17.701175 8.173510 25.814217 -9.455872 -28.653245 142.312337 -44.364291 179.462582 0.763345 2.840535 -19.854033 4.499686 16.839725 -10.653524 -24.346215 -2.725874 29.126198 -170.841301 -46.875014 -157.196934 19.243675 -5.040816 -9.403134 -11.625029 -58.552036 7.162445 -77.440063 79.351980 -85.992723 -5.363236 -12.339367 8.725676 0.065779 -0.228658 0.063421 10.867324 -56.950003 -8.837316 25.188155 83.815016 31.374905 -2.626982 -9.606840 0.708614 0.059594 0.164556 0.057361
-112.898421 52.200913 -45.938930 177.704754 -23.705344 -0.847613 -3.037123 12.635129 0.701413 -0.291343 0.967630 0.121601 -0.371933 1.711149 0.167379 -2.791990 11.412035 1.041783 -3.331849 12.778656 -1.006248 -3.325846 -12.267854 -0.235784 -1.115961 17.671741 8.103024 25.786736 -9.466121 -28.571265 142.448594 -44.415595 179.357585 0.746106 2.880934 -19.918454 4.519925 16.849417 -10.650636 -24.441484 -2.550457 29.228574 -170.697207 -46.863557 -157.518533 19.410784 -5.005079 -10.213686 -11.633092 -58.597785 7.171410 -77.658237 79.302144 -86.260560 -5.403411 -12.196476 8.693447 0.131619 -0.389947 0.105737 10.944043 -56.975426 -8.909007 25.293933 83.844540 31.447309 -2.670923 -9.686299 0.729343 0.073961 0.231521 0.064068
-112.893711 52.160921 -45.950744 177.749874 -23.682270 -0.816502 -3.043723 12.636347 0.651263 -0.245117 0.990713 0.106288 -0.438411 1.673063 0.186900 -2.768308 11.419380 1.009791 -3.346649 12.768401 -0.978492 -3.303161 -12.264795 -0.267737 -1.098272 17.622921 8.075030 25.853551 -9.438898 -28.580421 142.541935 -44.510444 179.185358 0.727705 2.925268 -19.962145 4.495672 16.834294 -10.627760 -24.514684 -2.380740 29.335070 -170.514463 -46.877109 -157.859369 19.571625 -4.898042 -11.051472 -11.624730 -58.636007 7.116041 -77.849277 79.273426 -86.462678 -5.394361 -12.167425 8.686580 0.141008 -0.445562 0.111189 10.963753 -57.009155 -8.959875 25.335672 83.869680 31.455202 -2.698621 -9.745896 0.745065 0.100286 0.286425 0.060036
-112.886827 52.126460 -45.966303 177.834072 -23.692293 -0.808862 -3.086737 12.674209 0.607662 -0.254265 0.982233 0.107215 -0.447848 1.664764 0.187996 -2.745148 11.429116 0.978009 -3.361612 12.756682 -0.951853 -3.303763 -12.264676 -0.269114 -1.080137 17.568572 8.048598 25.890228 -9.428081 -28.585141 142.667500 -44.594662 179.022265 0.698770 2.968854 -19.982946 4.442287 16.830601 -10.659456 -24.563141 -2.225417 29.482540 -170.268435 -46.921486 -158.233554 19.714236 -4.729238 -11.913368 -11.653644 -58.641427 7.060505 -78.172750 79.240548 -86.788658 -5.389368 -12.166027 8.686647 0.169011 -0.492493 0.114000 10.908583 -57.011223 -8.972726 25.377559 83.892264 31.457551 -2.715820 -9.797741 0.754371 0.099610 0.333373 0.063896
-112.879623 52.092629 -45.973738 177.864666 -23.659668 -0.780630 -3.081711 12.671028 0.568459 -0.284299 0.957818 0.113194 -0.414851 1.685421 0.175444 -2.698199 11.458267 0.923845 -3.373161 12.747747 -0.951960 -3.326604 -12.274758 -0.246359 -1.113053 17.496043 8.104255 25.899449 -9.426034 -28.580566 142.816464 -44.627927 178.911050 0.660637 3.010772 -19.985920 4.365225 16.779999 -10.612397 -24.610640 -2.096234 29.575135 -169.927227 -46.999769 -158.665321 19.832492 -4.503569 -12.791114 -11.718827 -58.701010 7.090233 -78.424336 79.234044 -87.081209 -5.415465 -12.151166 8.681772 0.195159 -0.522727 0.115533 10.902002 -57.054784 -8.992097 25.400589 83.911527 31.438757 -2.730644 -9.842290 0.762390 0.108678 0.375093 0.063882
-112.872648 52.061400 -45.977506 177.933035 -23.612802 -0.765687 -3.112211 12.654549 0.529548 -0.284998 0.957490 0.109859 -0.372589 1.716375 0.160490 -2.735062 11.426880 0.922418 -3.379476 12.740630 -0.948808 -3.304185 -12.260669 -0.293598 -1.077024 17.421038 8.051496 25.920430 -9.423489 -28.588011 142.948851 -44.711236 178.743138 0.622971 3.048029 -19.981110 4.330457 16.753371 -10.592771 -24.631960 -2.037232 29.616960 -169.495266 -47.136161 -159.199426 19.924856 -4.226919 -13.667705 -11.751856 -58.764066 7.049732 -78.626756 79.250402 -87.285024 -5.442444 -12.189167 8.687765 0.202585 -0.500312 0.106007 10.863542 -57.110443 -9.020893 25.383464 83.921566 31.381021 -2.741137 -9.880457 0.767363 0.114485 0.418987 0.064263
-112.864327 52.034415 -45.981737 177.963434 -23.580350 -0.743687 -3.110211 12.651048 0.498771 -0.243491 0.989207 0.099728 -0.413496 1.683923 0.167287 -2.736109 11.426117 0.904173 -3.369697 12.751774 -0.978920 -3.307872 -12.263019 -0.294772 -1.032503 17.347340 7.998786 25.936166 -9.422691 -28.613228 143.091008 -44.794689 178.572131 0.588076 3.073666 -19.980115 4.300610 16.728064 -10.576620 -24.650224 -1.983117 29.653973 -168.941781 -47.291240 -159.793209 19.980707 -3.914178 -14.522144 -11.759321 -58.812279 7.019198 -78.799571 79.268474 -87.459263 -5.465257 -12.234297 8.699907 0.207660 -0.477876 0.090857 10.841621 -57.149862 -9.031831 25.391686 83.931152 31.354557 -2.750384 -9.912786 0.767715 0.118947 0.451366 0.063696
-112.857139 52.009022 -45.981114 177.968089 -23.526940 -0.707285 -3.105957 12.610421 0.463700 -0.243461 0.989057 0.098959 -0.400142 1.697583 0.161112 -2.737531 11.424016 0.887834 -3.356509 12.767765 -1.013903 -3.304635 -12.261528 -0.301677 -0.989225 17.286407 7.963617 25.942449 -9.423341 -28.648543 143.240038 -44.854274 178.425426 0.555109 3.088135 -19.987237 4.268237 16.707810 -10.585142 -24.681778 -1.893117 29.707596 -168.240907 -47.444534 -160.429350 19.996960 -3.580852 -15.344809 -11.772896 -58.890018 7.012874 -78.940328 79.278761 -87.621525 -5.458265 -12.262740 8.719089 0.196474 -0.463363 0.068447 10.857136 -57.205015 -9.063946 25.410331 83.933069 31.343402 -2.756559 -9.944989 0.768547 0.120583 0.484438 0.059915
-112.849822 51.987978 -45.982571 177.988906 -23.497449 -0.680543 -3.117228 12.593681 0.430395 -0.243463 0.988826 0.098207 -0.390707 1.710438 0.155250 -2.743328 11.415263 0.879937 -3.343004 12.785869 -1.044797 -3.287222 -12.248481 -0.328198 -0.936173 17.232532 7.919610 25.952493 -9.423048 -28.692362 143.383512 -44.905788 178.283244 0.530163 3.095860 -19.995863 4.220082 16.702154 -10.663752 -24.691806 -1.809469 29.793019 -167.409874 -47.618679 -161.148218 19.985683 -3.235035 -16.120768 -11.810877 -58.939511 7.011723 -79.117379 79.313065 -87.814736 -5.493020 -12.314419 8.728649 0.200603 -0.445416 0.056272 10.852517 -57.235616 -9.088648 25.407241 83.934770 31.315845 -2.761202 -9.966854 0.769523 0.130999 0.502932 0.056809
-112.846208 51.969512 -45.982964 178.014901 -23.470125 -0.637999 -3.108111 12.619403 0.376669 -0.263371 0.962310 0.102412 -0.402519 1.694280 0.158084 -2.748406 11.408088 0.879485 -3.323203 12.818094 -1.091371 -3.267801 -12.231550 -0.354339 -0.874945 17.191274 7.862881 25.974478 -9.420365 -28.746102 143.510074 -44.949710 178.149036 0.513042 3.098321 -20.002576 4.199912 16.700659 -10.699470 -24.743040 -1.742031 29.779480 -166.390768 -47.800925 -161.994097 19.953215 -2.883825 -16.826763 -11.822576 -58.989072 6.973276 -79.270037 79.342453 -87.982994 -5.536326 -12.350650 8.734096 0.245092 -0.445065 0.054811 10.874086 -57.258138 -9.149571 25.368293 83.936395 31.254094 -2.781124 -10.012093 0.768051 0.153805 0.546958 0.062142
-112.841802 51.952685 -45.980500 178.014362 -23.434085 -0.595354 -3.100264 12.606152 0.332457 -0.242732 0.987307 0.094212 -0.428077 1.656637 0.169243 -2.740908 11.418691 0.858062 -3.309176 12.837207 -1.112258 -3.248050 -12.212549 -0.377979 -0.814534 17.134905 7.834959 26.007645 -9.414990 -28.808386 143.603693 -44.990100 178.034797 0.499794 3.094685 -20.010215 4.169405 16.680514 -10.726585 -24.755784 -1.719980 29.789915 -165.337144 -48.004931 -162.873682 19.891477 -2.535823 -17.444580 -11.887206 -59.052464 7.003607 -79.402461 79.376334 -88.158216 -5.551834 -12.370032 8.726744 0.259049 -0.463992 0.057719 10.906384 -57.288105 -9.198231 25.365971 83.928761 31.232185 -2.789194 -10.024022 0.767510 0.158963 0.562126 0.060360
